<svg width="34" height="34" viewBox="0 0 34 34" fill="none" xmlns="http://www.w3.org/2000/svg">
<path d="M2.85541 1.10938H6.34747C6.81055 1.10938 7.25466 1.29333 7.5821 1.62078C7.90954 1.94822 8.0935 2.39233 8.0935 2.85541V6.34747C8.0935 6.81055 7.90954 7.25466 7.5821 7.5821C7.25466 7.90954 6.81055 8.0935 6.34747 8.0935H2.85541C2.39233 8.0935 1.94822 7.90954 1.62078 7.5821C1.29333 7.25466 1.10938 6.81055 1.10938 6.34747V2.85541C1.10938 2.39233 1.29333 1.94822 1.62078 1.62078C1.94822 1.29333 2.39233 1.10938 2.85541 1.10938ZM27.2998 1.10938H30.7919C31.255 1.10938 31.6991 1.29333 32.0265 1.62078C32.354 1.94822 32.5379 2.39233 32.5379 2.85541V6.34747C32.5379 6.81055 32.354 7.25466 32.0265 7.5821C31.6991 7.90954 31.255 8.0935 30.7919 8.0935H27.2998C26.8368 8.0935 26.3927 7.90954 26.0652 7.5821C25.7378 7.25466 25.5538 6.81055 25.5538 6.34747V2.85541C25.5538 2.39233 25.7378 1.94822 26.0652 1.62078C26.3927 1.29333 26.8368 1.10938 27.2998 1.10938ZM15.0776 1.10938H18.5697C19.0328 1.10938 19.4769 1.29333 19.8043 1.62078C20.1318 1.94822 20.3157 2.39233 20.3157 2.85541V6.34747C20.3157 6.81055 20.1318 7.25466 19.8043 7.5821C19.4769 7.90954 19.0328 8.0935 18.5697 8.0935H15.0776C14.6146 8.0935 14.1704 7.90954 13.843 7.5821C13.5156 7.25466 13.3316 6.81055 13.3316 6.34747V2.85541C13.3316 2.39233 13.5156 1.94822 13.843 1.62078C14.1704 1.29333 14.6146 1.10938 15.0776 1.10938ZM2.85541 13.3316H6.34747C6.81055 13.3316 7.25466 13.5156 7.5821 13.843C7.90954 14.1704 8.0935 14.6146 8.0935 15.0776V18.5697C8.0935 19.0328 7.90954 19.4769 7.5821 19.8043C7.25466 20.1318 6.81055 20.3157 6.34747 20.3157H2.85541C2.39233 20.3157 1.94822 20.1318 1.62078 19.8043C1.29333 19.4769 1.10938 19.0328 1.10938 18.5697V15.0776C1.10938 14.6146 1.29333 14.1704 1.62078 13.843C1.94822 13.5156 2.39233 13.3316 2.85541 13.3316ZM27.2998 13.3316H30.7919C31.255 13.3316 31.6991 13.5156 32.0265 13.843C32.354 14.1704 32.5379 14.6146 32.5379 15.0776V18.5697C32.5379 19.0328 32.354 19.4769 32.0265 19.8043C31.6991 20.1318 31.255 20.3157 30.7919 20.3157H27.2998C26.8368 20.3157 26.3927 20.1318 26.0652 19.8043C25.7378 19.4769 25.5538 19.0328 25.5538 18.5697V15.0776C25.5538 14.6146 25.7378 14.1704 26.0652 13.843C26.3927 13.5156 26.8368 13.3316 27.2998 13.3316ZM15.0776 13.3316H18.5697C19.0328 13.3316 19.4769 13.5156 19.8043 13.843C20.1318 14.1704 20.3157 14.6146 20.3157 15.0776V18.5697C20.3157 19.0328 20.1318 19.4769 19.8043 19.8043C19.4769 20.1318 19.0328 20.3157 18.5697 20.3157H15.0776C14.6146 20.3157 14.1704 20.1318 13.843 19.8043C13.5156 19.4769 13.3316 19.0328 13.3316 18.5697V15.0776C13.3316 14.6146 13.5156 14.1704 13.843 13.843C14.1704 13.5156 14.6146 13.3316 15.0776 13.3316ZM15.0776 25.5538H18.5697C19.0328 25.5538 19.4769 25.7378 19.8043 26.0652C20.1318 26.3927 20.3157 26.8368 20.3157 27.2998V30.7919C20.3157 31.255 20.1318 31.6991 19.8043 32.0265C19.4769 32.354 19.0328 32.5379 18.5697 32.5379H15.0776C14.6146 32.5379 14.1704 32.354 13.843 32.0265C13.5156 31.6991 13.3316 31.255 13.3316 30.7919V27.2998C13.3316 26.8368 13.5156 26.3927 13.843 26.0652C14.1704 25.7378 14.6146 25.5538 15.0776 25.5538Z" stroke="#F59100" stroke-width="2" stroke-linecap="round" stroke-linejoin="round"/>
</svg>
