<svg width="36" height="36" viewBox="0 0 36 36" fill="none" xmlns="http://www.w3.org/2000/svg">
<path d="M23.6669 12.3331H23.6858M26.6042 2.59199L33.408 9.39584C33.9127 9.90048 34.3131 10.4996 34.5863 11.159C34.8594 11.8184 35 12.5251 35 13.2388C35 13.9525 34.8594 14.6593 34.5863 15.3187C34.3131 15.978 33.9127 16.5772 33.408 17.0818L28.4156 22.0742C27.911 22.5789 27.3119 22.9793 26.6525 23.2524C25.9931 23.5256 25.2864 23.6662 24.5726 23.6662C23.8589 23.6662 23.1522 23.5256 22.4928 23.2524C21.8334 22.9793 21.2343 22.5789 20.7297 22.0742L20.1611 21.5056L7.77363 33.8931C7.14598 34.5207 6.31742 34.9072 5.43327 34.9849L5.10271 35H2.88891C2.42625 34.9999 1.97971 34.8301 1.63397 34.5226C1.28823 34.2152 1.06735 33.7916 1.01322 33.3321L1 33.1111V30.8973C1.00022 30.0103 1.31249 29.1518 1.88212 28.4719L2.1069 28.2264L2.88891 27.4444H6.66673V23.6665H10.4445V19.8887L14.4944 15.8389L13.9258 15.2703C13.4211 14.7657 13.0207 14.1666 12.7476 13.5072C12.4744 12.8478 12.3338 12.1411 12.3338 11.4274C12.3338 10.7136 12.4744 10.0069 12.7476 9.34752C13.0207 8.68813 13.4211 8.08901 13.9258 7.58437L18.9182 2.59199C19.4228 2.08727 20.022 1.6869 20.6813 1.41375C21.3407 1.14059 22.0475 1 22.7612 1C23.4749 1 24.1816 1.14059 24.841 1.41375C25.5004 1.6869 26.0995 2.08727 26.6042 2.59199Z" stroke="#F59100" stroke-width="2" stroke-linecap="round" stroke-linejoin="round"/>
</svg>
