<svg width="28" height="28" viewBox="0 0 28 28" fill="none" xmlns="http://www.w3.org/2000/svg">
<g clip-path="url(#clip0_0_8676)">
<circle cx="14" cy="14" r="12" fill="#003537"/>
<path d="M14 28C21.7 28 28 21.7 28 14C28 6.3 21.7 0 14 0C6.3 0 0 6.3 0 14C0 21.7 6.3 28 14 28ZM14 25.2C9.66 25.2 5.74 22.68 3.92 18.9L10.64 16.52C11.48 17.64 12.74 18.2 14 18.2C15.26 18.2 16.52 17.64 17.22 16.66L24.08 18.9C22.26 22.68 18.34 25.2 14 25.2ZM15.4 2.94C20.86 3.64 25.2 8.4 25.2 14C25.2 14.84 25.06 15.54 24.92 16.38L18.2 14C18.2 12.18 17.08 10.64 15.4 10.08L15.4 2.94ZM14 12.6C14.84 12.6 15.4 13.16 15.4 14C15.4 14.84 14.84 15.4 14 15.4C13.16 15.4 12.6 14.84 12.6 14C12.6 13.16 13.16 12.6 14 12.6ZM12.6 2.94L12.6 10.08C10.92 10.64 9.8 12.18 9.8 14L3.08 16.38C2.94 15.54 2.8 14.84 2.8 14C2.8 8.26 7.14 3.64 12.6 2.94Z" fill="white"/>
</g>
<defs>
<clipPath id="clip0_0_8676">
<rect width="28" height="28" fill="white"/>
</clipPath>
</defs>
</svg>
