<svg width="28" height="28" viewBox="0 0 28 28" fill="none" xmlns="http://www.w3.org/2000/svg">
<path d="M14.01 0C6.29 0 0 6.29 0 14.02C0 21.75 6.29 28.03 14.01 28.03C21.73 28.03 28.03 21.74 28.03 14.02C28.03 6.3 21.74 0 14.01 0ZM4.27 8.89C6.12 5.39 9.79 3 14.01 3C16.82 3 19.37 4.06 21.32 5.8C21.16 5.8 21.01 5.77 20.86 5.77C17.85 5.77 15.23 7.5 13.95 10.02C11.74 10.17 9.99 12 9.99 14.24C9.99 14.25 9.99 14.26 9.99 14.27C8.26 14.66 6.39 14.08 5.22 12.6C4.36 11.51 4.07 10.17 4.27 8.89ZM12.79 14.24C12.79 13.44 13.44 12.79 14.24 12.79C15.04 12.79 15.69 13.44 15.69 14.24C15.69 15.04 15.04 15.69 14.24 15.69C13.44 15.69 12.79 15.04 12.79 14.24ZM17.35 22.25C16.76 23.69 15.54 24.66 14.14 25.03C14.14 25.03 14.06 25.03 14.01 25.03C8.15 25.03 3.36 20.43 3.03 14.65C5.05 17.04 8.25 17.91 11.11 17.09C11.89 17.95 13 18.49 14.24 18.49C15.19 18.49 16.05 18.17 16.76 17.64C17.7 18.93 17.99 20.66 17.34 22.24L17.35 22.25ZM20.22 23.12C21.29 20.21 20.5 17.05 18.43 14.96C18.47 14.73 18.5 14.49 18.5 14.24C18.5 12.9 17.87 11.72 16.9 10.94C17.75 9.64 19.2 8.77 20.87 8.77C22.28 8.77 23.54 9.4 24.41 10.38C24.81 11.52 25.04 12.74 25.04 14.02C25.04 17.79 23.13 21.13 20.23 23.11L20.22 23.12Z" fill="white"/>
</svg>
