<svg width="0" height="0" class="hidden">
  <symbol xmlns="http://www.w3.org/2000/svg" viewBox="0 0 125 45" id="logo">
    <g>
      <path d="M43.2513 19.0469L43.2287 7.82246L37.771 17.0742H35.8315L30.3963 8.06055V19.0469H26.3594V0.328125H29.9114L36.8576 11.9608L43.7023 0.328125H47.2318L47.2882 19.0469H43.2513Z"></path>
      <path d="M66.682 15.5662V19.0469H52.3047V0.328125H66.3324V3.79751H56.5784V7.86781H65.1935V11.2352H56.5784V15.5662H66.682Z"></path>
      <path d="M77.7451 19.3987C76.313 19.3987 74.9711 19.172 73.7307 18.7071C72.5129 18.2196 71.4416 17.5506 70.5395 16.6663C69.6374 15.7933 68.927 14.7615 68.4083 13.5824C67.9121 12.4032 67.6641 11.1107 67.6641 9.6935C67.6641 8.27626 67.9121 6.98375 68.4083 5.80461C68.927 4.62547 69.6261 3.59372 70.5395 2.72071C71.4642 1.84769 72.5354 1.17876 73.7533 0.713905C74.9711 0.226376 76.313 -0.0117188 77.7676 -0.0117188C79.3801 -0.0117188 80.8348 0.271728 82.1316 0.849959C83.4396 1.40551 84.5447 2.22184 85.4242 3.31028L82.6615 5.88397C82.0188 5.14701 81.3197 4.60279 80.5303 4.25132C79.7523 3.87717 78.8953 3.68443 77.9819 3.68443C77.1136 3.68443 76.313 3.83182 75.5913 4.11527C74.8696 4.39871 74.2381 4.80688 73.7082 5.35109C73.1782 5.88397 72.761 6.51889 72.4565 7.25586C72.1746 7.99282 72.028 8.79781 72.028 9.6935C72.028 10.5892 72.1746 11.3942 72.4565 12.1311C72.761 12.8681 73.1782 13.503 73.7082 14.0359C74.2381 14.5688 74.8696 14.9769 75.5913 15.2717C76.313 15.5552 77.1136 15.7026 77.9819 15.7026C78.9065 15.7026 79.7523 15.5212 80.5303 15.1697C81.3084 14.7955 82.0188 14.2286 82.6615 13.4803L85.4242 16.054C84.5334 17.1425 83.4396 17.9701 82.1316 18.5484C80.8348 19.1153 79.3801 19.4101 77.7451 19.4101V19.3987Z"></path>
      <path d="M92.9426 3.8542H87V0.328125H103.17V3.8542H97.2276V19.0356H92.9313V3.8542H92.9426Z"></path>
      <path d="M114.828 15.6689C115.922 15.6689 116.914 15.4195 117.794 14.9093C118.674 14.3991 119.373 13.6961 119.88 12.7778C120.388 11.8708 120.636 10.839 120.636 9.6712C120.636 8.5034 120.388 7.48299 119.88 6.56463C119.373 5.6576 118.685 4.94331 117.794 4.43311C116.914 3.9229 115.922 3.67347 114.828 3.67347C113.735 3.67347 112.742 3.9229 111.863 4.43311C110.983 4.94331 110.284 5.64626 109.777 6.56463C109.269 7.47166 109.021 8.5034 109.021 9.6712C109.021 10.839 109.269 11.8594 109.777 12.7778C110.284 13.6848 110.972 14.3991 111.863 14.9093C112.742 15.4195 113.735 15.6689 114.828 15.6689ZM114.828 19.3537C112.9 19.3537 111.164 18.9342 109.619 18.0952C108.074 17.2562 106.867 16.0998 105.988 14.6372C105.108 13.1633 104.68 11.5193 104.68 9.6712C104.68 7.82313 105.119 6.17914 105.988 4.70522C106.867 3.23129 108.074 2.07483 109.619 1.24717C111.164 0.419501 112.911 0 114.828 0C116.745 0 118.482 0.419501 120.027 1.2585C121.56 2.09751 122.778 3.25397 123.658 4.71655C124.537 6.19048 124.977 7.83447 124.977 9.68254C124.977 11.5306 124.537 13.1746 123.658 14.6485C122.778 16.1225 121.56 17.2789 120.027 18.1066C118.493 18.9456 116.757 19.3651 114.828 19.3651V19.3537Z"></path>
      <path fill-rule="evenodd" clip-rule="evenodd" d="M34.6024 24.625H47.1078V43.6499H26.3594V24.625H34.6024ZM38.8761 30.8041H34.6024V27.1874H28.9078V41.0876H44.5706V27.1874H38.8761V30.8041Z" ></path>
      <path d="M125.003 26.8711H60.2656V29.6149H125.003V26.8711Z"></path>
      <path fill-rule="evenodd" clip-rule="evenodd" d="M56.0803 22.9805C58.967 22.9805 61.3012 25.3387 61.3012 28.2412C61.3012 31.1437 58.967 33.502 56.0803 33.502C53.1936 33.502 50.8594 31.1437 50.8594 28.2412C50.8594 25.3387 53.1936 22.9805 56.0803 22.9805ZM56.0803 25.6562C57.5011 25.6562 58.6513 26.8127 58.6513 28.2526C58.6513 29.6925 57.5011 30.8489 56.0803 30.8489C54.6595 30.8489 53.5093 29.6925 53.5093 28.2526C53.5093 26.8127 54.6595 25.6562 56.0803 25.6562Z"></path>
      <path d="M119.895 26.8711H116.625V33.0502H119.895V26.8711Z"></path>
      <path d="M112.169 26.8711H108.898V33.0502H112.169V26.8711Z"></path>
      <path fill-rule="evenodd" clip-rule="evenodd" d="M8.95885 30.4413H12.4883V27.1987C12.4883 26.9946 12.6575 26.8245 12.8605 26.8245H18.555C18.758 26.8245 18.9271 26.9946 18.9271 27.1987V41.0989C18.9271 41.303 18.758 41.4731 18.555 41.4731H2.8922C2.68922 41.4731 2.52008 41.303 2.52008 41.0989V27.1987C2.52008 26.9946 2.68922 26.8245 2.8922 26.8245H8.58673C8.7897 26.8245 8.95885 26.9946 8.95885 27.1987V30.4413ZM8.58673 25.0105H0.715868V43.2871H20.72V25.0105H8.58673ZM12.8605 30.8155H8.58673V27.1987H2.8922V41.0989H18.555V27.1987H12.8605V30.8155ZM0.34375 24.625H21.0922V43.6499H0.34375V24.625Z"></path>
      <path fill-rule="evenodd" clip-rule="evenodd" d="M8.95885 5.82843H12.4883V2.5858C12.4883 2.38171 12.6575 2.21165 12.8605 2.21165H18.555C18.758 2.21165 18.9271 2.38171 18.9271 2.5858V16.486C18.9271 16.6901 18.758 16.8602 18.555 16.8602H2.8922C2.68922 16.8602 2.52008 16.6901 2.52008 16.486V2.5858C2.52008 2.38171 2.68922 2.21165 2.8922 2.21165H8.58673C8.7897 2.21165 8.95885 2.38171 8.95885 2.5858V5.82843ZM8.58673 0.397587H0.715868V18.6742H20.72V0.397587H8.58673ZM12.8605 6.20258H8.58673V2.5858H2.8922V16.486H18.555V2.5858H12.8605V6.20258ZM0.34375 0.0234375H21.0922V19.0484H0.34375V0.0234375Z"></path>
      <path fill-rule="evenodd" clip-rule="evenodd" d="M12.8605 30.8041H8.58673V27.1874H2.8922V41.0876H18.555V27.1874H12.8605V30.8041ZM0.34375 24.625H21.0922V43.6499H0.34375V24.625Z" ></path>
      <path fill-rule="evenodd" clip-rule="evenodd" d="M12.8605 6.20258H8.58673V2.5858H2.8922V16.486H18.555V2.5858H12.8605V6.20258ZM0.34375 0.0234375H21.0922V19.0484H0.34375V0.0234375Z" ></path>
      <path d="M57.278 43.5929L55.1919 40.339L56.4435 39.5793L59.0371 43.6043H57.278V43.5929ZM52.9141 43.5929V36.8242H54.4589V43.5929H52.9141ZM54.0079 40.8718V39.568H56.3421V40.8718H54.0079ZM56.5901 40.3843L55.158 40.2142L57.3344 36.8356H58.9694L56.5789 40.3956L56.5901 40.3843Z"></path>
      <path d="M61.923 43.6946C61.8103 43.6946 61.6862 43.6946 61.5622 43.6606C61.4382 43.6379 61.3028 43.6152 61.1562 43.5812L61.2465 42.2547C61.3367 42.2774 61.4269 42.2887 61.5284 42.2887C61.7877 42.2887 61.9907 42.1866 62.1373 41.9712C62.2839 41.7558 62.3854 41.4383 62.453 41.0302C62.5207 40.622 62.5545 40.1345 62.5771 39.5563L62.6673 36.8125H67.8205V43.5812H66.287V37.7309L66.6365 38.0937H63.6709L63.9866 37.7195L63.9302 39.5109C63.9077 40.1798 63.8626 40.7694 63.7949 41.2796C63.7272 41.7898 63.6145 42.232 63.4679 42.5948C63.3213 42.9576 63.1183 43.2297 62.859 43.4111C62.5996 43.5925 62.2839 43.6946 61.8892 43.6946H61.923Z"></path>
      <path d="M70.6719 43.5929L73.6601 36.8242H75.1937L78.1932 43.5929H76.5694L74.1111 37.6179H74.7201L72.2618 43.5929H70.6719ZM72.1716 42.1417L72.5888 40.9512H76.0394L76.4566 42.1417H72.1716Z"></path>
      <path d="M85.4936 42.9017V38.1058H83.1932L83.1594 39.0922C83.1368 39.5117 83.1143 39.9085 83.0692 40.2826C83.0353 40.6568 82.9902 40.9969 82.9113 41.3031C82.8436 41.6092 82.7534 41.8586 82.6294 42.074C82.5166 42.2895 82.3813 42.4368 82.2122 42.5275L80.5545 42.3121C80.7801 42.3121 80.9718 42.2328 81.1184 42.074C81.2762 41.904 81.389 41.6659 81.4792 41.3711C81.5694 41.065 81.6371 40.7022 81.6709 40.294C81.716 39.8858 81.7498 39.4323 81.7611 38.9561L81.84 36.8359H86.9933V42.9017H85.4597H85.4936ZM80.3516 44.9992V42.3235H87.9631V44.9992H86.531V43.5933H81.7949V44.9992H80.3628H80.3516Z"></path>
      <path d="M94.1327 43.706C93.6027 43.706 93.1065 43.6153 92.6555 43.4453C92.2044 43.2752 91.821 43.0257 91.4827 42.7083C91.1557 42.3908 90.8964 42.0167 90.7159 41.5972C90.5355 41.1663 90.4453 40.7128 90.4453 40.2026C90.4453 39.6924 90.5355 39.2389 90.7159 38.8081C90.8964 38.3772 91.1557 38.0144 91.494 37.697C91.8323 37.3795 92.2157 37.1414 92.6667 36.96C93.1178 36.7899 93.6027 36.6992 94.1214 36.6992C94.6401 36.6992 95.1363 36.7899 95.576 36.96C96.0271 37.1301 96.4105 37.3795 96.7375 37.697C97.0645 38.0144 97.3239 38.3886 97.5156 38.8081C97.696 39.2276 97.7975 39.6924 97.7975 40.2026C97.7975 40.7128 97.7073 41.1777 97.5156 41.6085C97.3351 42.0394 97.0758 42.4022 96.7375 42.7196C96.4105 43.0258 96.0271 43.2752 95.576 43.4453C95.1363 43.6153 94.6514 43.706 94.1327 43.706ZM94.1327 42.3682C94.4371 42.3682 94.7078 42.3115 94.9558 42.2094C95.2152 42.1074 95.4294 41.96 95.6211 41.7672C95.8128 41.5745 95.9594 41.3477 96.0609 41.0756C96.1737 40.8149 96.2188 40.5201 96.2188 40.1913C96.2188 39.8625 96.1624 39.579 96.0609 39.3069C95.9594 39.0462 95.8128 38.8194 95.6211 38.6153C95.4407 38.4226 95.2152 38.2752 94.9558 38.1731C94.6965 38.0711 94.4259 38.0144 94.1214 38.0144C93.8169 38.0144 93.5463 38.0711 93.2869 38.1731C93.0389 38.2752 92.8133 38.4226 92.6216 38.6153C92.4299 38.8081 92.2833 39.0348 92.1706 39.3069C92.0691 39.5677 92.0127 39.8625 92.0127 40.1913C92.0127 40.5201 92.0691 40.8035 92.1706 41.0756C92.2833 41.3364 92.4299 41.5632 92.6104 41.7672C92.8021 41.96 93.0276 42.1074 93.2757 42.2094C93.535 42.3115 93.8057 42.3682 94.1101 42.3682H94.1327Z"></path>
      <path d="M100.906 43.5929V36.8242H104.03C104.808 36.8242 105.417 36.9716 105.845 37.2777C106.285 37.5839 106.499 38.0147 106.499 38.5703C106.499 39.1258 106.296 39.5566 105.89 39.8628C105.484 40.1689 104.943 40.3163 104.267 40.3163L104.447 39.9081C105.203 39.9081 105.789 40.0555 106.206 40.3616C106.623 40.6678 106.826 41.0986 106.826 41.6768C106.826 42.2551 106.601 42.7312 106.161 43.0827C105.721 43.4229 105.078 43.5816 104.221 43.5816H100.918L100.906 43.5929ZM102.451 42.4365H104.154C104.515 42.4365 104.785 42.3684 104.966 42.221C105.146 42.0737 105.248 41.8582 105.248 41.5634C105.248 41.2687 105.157 41.0759 104.966 40.9399C104.785 40.7925 104.503 40.7244 104.154 40.7244H102.451V42.4365ZM102.451 39.636H103.894C104.233 39.636 104.492 39.568 104.661 39.4319C104.83 39.2845 104.921 39.0805 104.921 38.8083C104.921 38.5362 104.83 38.3322 104.661 38.1961C104.492 38.0487 104.233 37.9807 103.894 37.9807H102.451V39.6247V39.636Z"></path>
      <path d="M114.317 43.5929L112.231 40.339L113.483 39.5793L116.076 43.6043H114.317V43.5929ZM109.953 43.5929V36.8242H111.498V43.5929H109.953ZM111.047 40.8718V39.568H113.381V40.8718H111.047ZM113.629 40.3843L112.197 40.2142L114.373 36.8356H116.009L113.618 40.3956L113.629 40.3843Z"></path>
      <path d="M118.711 43.5929V36.8242H120.256V41.2346L123.458 36.8242H124.913V43.5929H123.379V39.1938L120.177 43.5929H118.711Z"></path>
    </g>
  </symbol>
  <symbol xmlns="http://www.w3.org/2000/svg" viewBox="0 0 24 25" id="account">
    <g>
      <path d="M11.9996 0.5C8.75874 0.5 6.12207 3.13667 6.12207 6.37756C6.12207 9.61845 8.75874 12.2551 11.9996 12.2551C15.2405 12.2551 17.8772 9.61841 17.8772 6.37752C17.8772 3.13662 15.2405 0.5 11.9996 0.5ZM11.9996 10.7857C9.56898 10.7857 7.59146 8.80822 7.59146 6.37756C7.59146 3.94691 9.56898 1.96939 11.9996 1.96939C14.4303 1.96939 16.4078 3.94691 16.4078 6.37756C16.4078 8.80822 14.4303 10.7857 11.9996 10.7857Z" />
      <path d="M11.9998 13.7246C6.4633 13.7246 1.95898 18.2289 1.95898 23.7654V24.5001H22.0406V23.7655C22.0406 18.2289 17.5363 13.7246 11.9998 13.7246ZM3.45955 23.0308C3.83347 18.6471 7.52098 15.194 11.9998 15.194C16.4786 15.194 20.1661 18.6471 20.54 23.0308H3.45955Z" />
    </g>
  </symbol>
  <symbol xmlns="http://www.w3.org/2000/svg" viewBox="0 0 28 28" id="arrow-cos">
    <path d="M8.41805 4.73527L8.5189 6.37279L21.2512 5.58864L3.5205 23.3193L4.6806 24.4794L22.4113 6.74874L21.6271 19.481L23.2647 19.5819L24.1997 4.40051L23.5994 3.80027L8.41805 4.73527Z" />
  </symbol>
  <symbol xmlns="http://www.w3.org/2000/svg" viewBox="0 0 26 42" id="arrow-left">
    <path d="M23.7656 1.80859L2.23371 21.0001L23.7656 40.1916" stroke-width="2" stroke-linecap="square" />
  </symbol>
  <symbol xmlns="http://www.w3.org/2000/svg" viewBox="0 0 26 42" id="arrow-right">
    <path d="M2.23438 1.80859L23.7663 21.0001L2.23437 40.1916" stroke-width="2" stroke-linecap="square" />
  </symbol>
  <symbol xmlns="http://www.w3.org/2000/svg" viewBox="0 0 24 24" id="more">
    <path d="M8,12a2,2,0,1,1-2-2A2,2,0,0,1,8,12Zm10-2a2,2,0,1,0,2,2A2,2,0,0,0,18,10Zm-6,0a2,2,0,1,0,2,2A2,2,0,0,0,12,10Z" />
  </symbol>
  <symbol xmlns="http://www.w3.org/2000/svg" viewBox="0 0 36 36" id="mark">
    <path d="M31.3085 22.1621H23.1745C26.4097 17.9996 28.4726 13.7227 28.397 10.8704C28.397 4.33714 23.1107 0.433105 18 0.433105C12.8893 0.433105 7.60304 4.33714 7.60304 10.8704C7.52502 13.7201 9.59146 18.0026 12.8256 22.1621H4.6915L0 35.5664H36L31.3085 22.1621ZM29.8069 24.2786L31.1998 28.2583L19.6773 26.3108C20.1516 25.7986 20.7756 25.1044 21.4724 24.2786H29.8069ZM9.71944 10.8705C9.71944 5.66197 13.9297 2.54964 18 2.54964C23.1832 2.54964 26.2805 6.78031 26.2805 10.8705C26.5069 14.5978 21.1592 21.7671 18 25.0046C14.8364 21.7618 9.49326 14.5973 9.71944 10.8705ZM16.4763 26.4758L10.2448 28.4635L7.42957 24.2787H14.5276C15.3028 25.1972 15.9871 25.9521 16.4763 26.4758ZM5.74331 25.5637L11.0486 33.45H2.98309L5.74331 25.5637ZM13.5994 33.4499L11.4753 30.2925L18.0769 28.1868L31.9982 30.5397L33.0168 33.4499H13.5994Z" />
    <path d="M18.0001 15.2842C20.4561 15.2842 22.4542 13.2861 22.4542 10.8301C22.2096 4.92103 13.7897 4.92273 13.5459 10.8301C13.5459 13.286 15.5441 15.2842 18.0001 15.2842ZM18.0001 8.49236C19.2891 8.49236 20.3378 9.54106 20.3378 10.8301C20.2094 13.9312 15.7903 13.9304 15.6624 10.8301C15.6624 9.54099 16.7111 8.49236 18.0001 8.49236Z" />
  </symbol>
  <symbol xmlns="http://www.w3.org/2000/svg" viewBox="0 0 24 36" id="rented">
    <path d="M0.249023 0V36H23.3502V0H0.249023ZM21.2423 33.8921H2.35692V28.271H21.2423V33.8921ZM2.35762 26.1631V6.32369H21.2423V26.1631H2.35762ZM2.35692 4.21579V2.1079H21.2423V4.21579H2.35692Z" />
    <path d="M9.91992 30.0977H14.0711V32.2056H9.91992V30.0977Z" />
    <path d="M11.9954 8.50977C7.94504 8.50977 4.6499 11.8049 4.6499 15.8552C4.6499 19.9056 7.94504 23.2007 11.9954 23.2007C16.0457 23.2007 19.3408 19.9056 19.3408 15.8552C19.3408 11.8049 16.0457 8.50977 11.9954 8.50977ZM11.9954 21.0928C9.10733 21.0928 6.7578 18.7433 6.7578 15.8552C6.7578 12.9672 9.10733 10.6177 11.9954 10.6177C14.8834 10.6177 17.2329 12.9672 17.2329 15.8552C17.2329 18.7433 14.8834 21.0928 11.9954 21.0928Z" />
    <path d="M11.2394 16.2829L9.65944 14.7031L8.16895 16.1936L11.2394 19.2639L15.8215 14.6819L14.331 13.1914L11.2394 16.2829Z" />
  </symbol>
  <symbol xmlns="http://www.w3.org/2000/svg" viewBox="0 0 33 36" id="key">
    <path d="M24.929 3.9517C24.4087 1.69102 22.3782 0 19.9599 0C17.4015 0 15.2772 1.89267 14.9158 4.35023C13.3827 4.69287 11.9945 5.45576 10.8692 6.58005C8.69325 8.75412 7.91039 11.9302 8.78424 14.8394L7.15411 16.4682V18.2869H5.334L3.98773 19.632V21.4507H2.16748L0.884766 22.7325V28.3007H6.4578L14.3577 20.4074C16.2408 20.9697 18.2711 20.8448 20.0628 20.0685V23.2269L21.3499 24.5129L20.0628 25.7989V27.7012L21.3499 28.9872L20.0628 30.2732V32.0877L24.0035 36L27.9442 32.0877V19.5185C30.621 18.0787 32.3152 15.2798 32.3152 12.2052C32.3152 7.93849 29.0781 4.41302 24.929 3.9517ZM19.9599 2.10762C21.2203 2.10762 22.301 2.89118 22.7397 3.99642C21.808 4.13902 20.9268 4.43679 20.1233 4.86239C19.179 4.4448 18.1554 4.20595 17.1213 4.158C17.5153 2.96831 18.6389 2.10762 19.9599 2.10762ZM14.4653 18.2164L13.8216 17.9625L5.58403 26.1931H2.99407V23.6053L3.04118 23.5583H6.09703V20.505L6.20763 20.3945H9.26348V17.3412L11.2316 15.3749L10.9775 14.7317C10.0691 12.4324 10.612 9.81766 12.3608 8.0704C13.8944 6.53801 16.0439 5.94211 18.0729 6.39225C16.6008 7.89131 15.6917 9.94416 15.6917 12.2052C15.6917 14.6152 16.7326 16.8557 18.4718 18.4051C17.1679 18.7803 15.7535 18.7246 14.4653 18.2164ZM26.4697 17.8928L25.8349 18.168V31.2108L24.0035 33.0289L22.1722 31.2108V31.1462L24.333 28.9872L22.1722 26.8283V26.6719L24.333 24.513L22.1722 22.354V18.168L21.5373 17.8928C19.2677 16.9087 17.8012 14.6762 17.8012 12.2052C17.8012 9.14723 20.0295 6.59953 22.9488 6.09778V9.9637H25.0582V6.09778C27.9776 6.59953 30.2058 9.14723 30.2058 12.2052C30.2059 14.6762 28.7393 16.9087 26.4697 17.8928Z" />
  </symbol>
  <symbol xmlns="http://www.w3.org/2000/svg" viewBox="0 0 35 36" id="transportation">
    <path d="M33.8184 30.7266H4.14648V26.5078H33.8184V30.7266Z" stroke-width="2.10937" stroke-miterlimit="10" />
    <path d="M31.709 32.8359C31.709 34.0009 30.7646 34.9453 29.5996 34.9453C28.4346 34.9453 27.4902 34.0009 27.4902 32.8359C27.4902 31.6709 28.4346 30.7266 29.5996 30.7266C30.7646 30.7266 31.709 31.6709 31.709 32.8359Z" stroke-width="2.10937" stroke-miterlimit="10" />
    <path d="M10.4746 32.8359C10.4746 34.0009 9.53024 34.9453 8.36523 34.9453C7.20023 34.9453 6.25586 34.0009 6.25586 32.8359C6.25586 31.6709 7.20023 30.7266 8.36523 30.7266C9.53024 30.7266 10.4746 31.6709 10.4746 32.8359Z" stroke-width="2.10937" stroke-miterlimit="10" />
    <path d="M4.14648 6.32813V26.5078" stroke-width="2.10937" stroke-miterlimit="10" />
    <path d="M0.982422 6.32812H7.31055" stroke-width="2.10937" stroke-miterlimit="10" />
    <path d="M26.3652 13.7812H11.5996V1.05469H26.3652V13.7812Z" stroke-width="2.10937" stroke-miterlimit="10" />
    <path d="M21.0918 5.34375H16.873V1.05469H21.0918V5.34375Z" stroke-width="2.10937" stroke-miterlimit="10" />
    <path d="M18.9824 9.57275H23.2012" stroke-width="2.10937" stroke-miterlimit="10" />
    <path d="M26.3652 26.5078H11.5996V13.7813H26.3652V26.5078Z" stroke-width="2.10937" stroke-miterlimit="10" />
    <path d="M21.0918 18.0703H16.873V13.7813H21.0918V18.0703Z" stroke-width="2.10937" stroke-miterlimit="10" />
    <path d="M18.9824 22.2993H23.2012" stroke-width="2.10937" stroke-miterlimit="10" />
  </symbol>
  <symbol xmlns="http://www.w3.org/2000/svg" viewBox="0 0 37 36" id="watch">
    <path d="M18.1299 35.9298C13.3407 35.9298 8.83812 34.0648 5.45169 30.6783C2.06519 27.2919 0.200195 22.7893 0.200195 18.0001C0.200195 13.2109 2.06519 8.70831 5.45169 5.32181C8.83812 1.93531 13.3407 0.0703125 18.1299 0.0703125C22.6879 0.0703125 27.0321 1.78236 30.3623 4.89099C33.6755 7.98402 35.6818 12.1688 36.0113 16.6746L36.0883 17.7256L33.9861 17.8794L33.9092 16.8283C33.3084 8.61325 26.3773 2.17805 18.1299 2.17805C9.40566 2.17805 2.30793 9.27578 2.30793 18.0001C2.30793 26.7243 9.40566 33.8221 18.1299 33.8221C19.7624 33.8221 21.3713 33.5747 22.9118 33.0869L23.9165 32.7688L24.5528 34.7782L23.5482 35.0963C21.8015 35.6494 19.9786 35.9298 18.1299 35.9298Z" />
    <path d="M19.1837 19.0434H9.64258V16.9356H17.0759V4.5H19.1837V19.0434Z" />
    <path d="M34.9525 31.4944L32.8448 31.4889L32.8521 28.6684H27.3193L32.2339 20.1035H34.9819L34.9653 26.5607H36.1997V28.6684H34.9599L34.9525 31.4944ZM30.9589 26.5607H32.8576L32.8661 23.2367L30.9589 26.5607Z" />
    <path d="M25.9999 31.0958H19.4006L19.4072 29.3016L19.6966 28.9979C19.7046 28.9894 20.7128 27.9105 23.0184 24.6163C23.4574 23.9889 23.7405 23.4297 23.8607 22.9531L23.891 22.7162C23.8605 21.9743 23.2475 21.3802 22.4984 21.3802C21.8337 21.3802 21.2586 21.8523 21.1308 22.5026L20.9276 23.5368L18.8594 23.1305L19.0626 22.0964C19.384 20.4601 20.829 19.2725 22.4983 19.2725C24.429 19.2725 25.9998 20.8432 25.9998 22.7739V22.8409L25.9373 23.3302L25.9253 23.382C25.7512 24.1327 25.3542 24.9546 24.7451 25.8249C23.752 27.2438 22.9887 28.2691 22.4307 28.9881H25.9998L25.9999 31.0958Z" />
  </symbol>
  <symbol xmlns="http://www.w3.org/2000/svg" viewBox="0 0 15 12" id="check">
    <path d="M1.1333 7.10764L4.89801 10.8L13.9333 1.19995" stroke-linecap="round" stroke-linejoin="round" />
  </symbol>
  <symbol xmlns="http://www.w3.org/2000/svg" viewBox="0 0 24 14" id="vk">
    <path d="M19.2139 7.83914L23.9856 0.625H16.6677L16.5311 1.15436C16.1804 2.51336 15.5223 4.35521 14.3788 5.41246C14.2375 5.54301 14.1036 5.64793 13.9804 5.73197V0.625H7.60672V2.03601H8.20218V5.23393C7.4877 4.60551 6.58994 3.40636 6.35483 1.25396L6.28617 0.625H0L0.215881 1.49951C0.992061 4.64452 2.15642 7.22098 3.67693 9.15731C4.91819 10.7382 6.39658 11.8989 8.07089 12.607C9.56612 13.2395 10.9429 13.3945 11.9335 13.3945C12.8446 13.3945 13.4289 13.2633 13.478 13.2519L14.0154 13.1267L14.0432 11.1883L16.4366 13.2704H24.0001L19.2139 7.83914ZM12.6756 8.12863L12.621 11.9511C11.8331 12.0213 10.2722 12.024 8.54953 11.2771C7.11087 10.6533 5.83298 9.63174 4.75138 8.24069C3.51268 6.64768 2.52721 4.5634 1.8164 2.03601H5.04032C5.73814 6.08299 8.54568 7.13016 8.67074 7.17466L9.61318 7.51084V2.03601H12.5696V7.5178L13.3119 7.47898C13.4022 7.47422 14.2219 7.40885 15.19 6.5792C16.2899 5.63639 17.1507 4.10967 17.7524 2.03601H21.3606L17.4411 7.96146L20.876 11.8592H16.9643L12.6756 8.12863Z" />
  </symbol>
  <symbol xmlns="http://www.w3.org/2000/svg" viewBox="0 0 24 24" id="youtube">
    <g>
      <path d="M23.5043 6.33582C23.1801 5.11505 22.2242 4.15393 21.0103 3.82745C19.2103 3.34222 12.7328 3.32812 12 3.32812C11.2672 3.32812 4.78967 3.34222 2.99011 3.82727C1.77576 4.15393 0.819946 5.11505 0.49585 6.33527C0.00567627 8.17603 0 11.8336 0 11.9883C0 12.143 0.00567627 15.8005 0.495667 17.6407C0.819946 18.8615 1.77576 19.8226 2.98975 20.1491C4.78967 20.6343 11.2672 20.6484 12 20.6484C12.7328 20.6484 19.2103 20.6343 21.0099 20.1493C22.2242 19.8226 23.1801 18.8615 23.5042 17.6413C23.9943 15.8005 24 12.143 24 11.9883C24 11.8336 23.9943 8.17603 23.5043 6.33582ZM22.1451 17.2798C21.9498 18.0157 21.3746 18.5949 20.6442 18.7914C19.2729 19.1611 13.9395 19.2422 12 19.2422C10.0607 19.2422 4.72723 19.1611 3.35541 18.7912C2.62537 18.5949 2.05042 18.0157 1.85468 17.2793C1.41174 15.6163 1.40625 12.0244 1.40625 11.9883C1.40625 11.9522 1.41138 8.36188 1.85486 6.69672C2.05023 5.96082 2.62537 5.38165 3.35577 5.18518C4.72705 4.81549 10.0607 4.73438 12 4.73438C13.9393 4.73438 19.2729 4.81549 20.6446 5.18536C21.3746 5.38165 21.9498 5.96082 22.1453 6.69727C22.5883 8.36023 22.5938 11.9522 22.5938 11.9883C22.5938 12.0244 22.5886 15.6147 22.1451 17.2798Z" />
      <path d="M8.98535 16.561L17.0156 11.9883L8.98535 7.41528V16.561ZM10.3916 9.83447L14.1738 11.9883L10.3916 14.142V9.83447Z" />
    </g>
  </symbol>
  <symbol xmlns="http://www.w3.org/2000/svg" viewBox="0 0 96 96" id="whatsapp">
    <g>
      <path xmlns="http://www.w3.org/2000/svg" d="M51,0c-24.9,0-45,20.3-45,45.3c0,8.3,2.2,16.3,6.4,23.3L0,96l28.7-11.2c6.8,3.9,14.4,5.9,22.3,5.9c24.9,0,45-20.3,45-45.3  S75.8,0,51,0z M51,86.7c-7.1,0-14.1-1.8-20.3-5.4l-1.7-1L7.7,88.7l9.2-20.3l-1.1-1.8c-3.8-6.4-5.8-13.8-5.8-21.3  C9.9,22.6,28.2,4,51,4c22.8,0,41,18.6,41,41.3S73.7,86.7,51,86.7z M66.7,51.8c-2.9-1.4-7.1-4.1-10.3-2.9c-2,0.8-3,2.6-4.3,4.2  c-2.4-1.2-5.3-3-6.8-4.8c-0.5-0.6-1.8-2.1-2.6-3.2c0.4-0.4,0.8-0.8,1.2-1.5c1.9-2.9,1.9-4.4,0.6-7.5c-0.5-1.2-1-2.5-1.5-3.7  c-1.5-3.5-2.4-6.9-7.1-7c-1.4,0-2.7-0.1-4,0.4c-3.5,1.2-6.3,5.2-7.3,8.7c-1.1,4.1-0.6,7.9,1.1,11.7c1.8,4.1,6.7,10.5,9.9,13.6  c1,0.9,2,1.7,3,2.6c1.1,1,2.3,1.7,3.5,2.5c4.7,3.1,13.7,6.5,19.2,5.4c3.5-0.7,7.6-3.2,9.3-6.4c0.9-1.7,1.5-4.7,1.3-6.7  C71.6,53.9,69.2,53.1,66.7,51.8z M67.1,62.1c-0.9,1.8-3.8,3.8-6.5,4.3c-4.5,0.9-12.7-2.4-16.3-4.8c-1.1-0.8-2-1.3-3.1-2.2  c-1.1-0.9-1.9-1.6-2.8-2.5c-2.8-2.7-7.5-8.9-9-12.3c-1.2-2.8-1.9-5.7-0.9-9c0.7-2.4,2.7-5.3,4.7-5.9c0.7-0.3,1.8-0.2,2.7-0.2  c2.2,0,2.3,1.8,3.5,4.5c0.5,1.3,1,2.5,1.5,3.8c0.8,1.8,0.9,2-0.3,3.7c-2.2,3.3-4.7,1.8,1.7,9.4c2.1,2.6,6.3,5.1,9.6,6.5  c1.8,0.8,2.4-0.5,3.2-1.5c3.5-4.2,1.6-4.6,9.9-0.5c1.8,0.9,2.9,1.1,3.1,2.3C68.1,58.9,67.6,61.2,67.1,62.1z"/>
    </g>
  </symbol>
  <symbol xmlns="http://www.w3.org/2000/svg" viewBox="0 0 24 22" id="telegram">
    <path d="M23.0485 0.587891L0 9.91156V11.2593L6.60138 13.2972L8.68914 19.9951L10.3557 19.9948L13.0427 17.2456L18.7149 21.4119L19.819 20.9918L24 1.38646L23.0485 0.587891ZM18.6704 19.6341L11.2 14.1471L10.3674 15.2806L11.8979 16.4048L9.72394 18.5885L8.01808 13.1159L17.8987 7.21641L17.1777 6.00885L7.15172 11.9951L2.3013 10.4978L22.3483 2.38831L18.6704 19.6341Z" />
  </symbol>
  <symbol xmlns="http://www.w3.org/2000/svg" viewBox="0 0 24 24" id="placemark">
    <g>
      <path d="M12.0452 11.8257C11.1337 11.8257 10.222 11.4788 9.52826 10.7848C8.14032 9.39703 8.14032 7.13879 9.52826 5.75085C10.2004 5.07849 11.0944 4.70825 12.0452 4.70825C12.9961 4.70825 13.8898 5.07867 14.5622 5.75085C15.9501 7.13879 15.9501 9.39703 14.5622 10.7848C13.8682 11.4788 12.9567 11.8257 12.0452 11.8257ZM12.0452 6.11725C11.4943 6.11725 10.9433 6.3269 10.5238 6.7464C9.68481 7.58539 9.68481 8.95044 10.5238 9.78943C10.9301 10.1957 11.4705 10.4195 12.0452 10.4195C12.62 10.4195 13.1603 10.1957 13.5667 9.78943C14.4056 8.95044 14.4056 7.58539 13.5667 6.7464C13.1472 6.3269 12.5962 6.11725 12.0452 6.11725Z" />
      <path d="M12.0536 24L11.5093 23.3606C11.1907 22.9861 3.70312 14.1238 3.70312 8.34229C3.70312 3.74231 7.44543 0 12.0454 0C16.6454 0 20.3877 3.74231 20.3877 8.34229C20.3877 13.8395 12.9067 22.9666 12.5883 23.3524L12.0536 24ZM12.0454 1.4079C8.2218 1.4079 5.11102 4.51868 5.11102 8.34229C5.11102 10.4912 6.3924 13.6011 8.81671 17.3359C10.0748 19.274 11.3417 20.9154 12.0377 21.7841C12.7348 20.8916 14.0138 19.1962 15.2798 17.2213C17.7004 13.4454 18.9798 10.3749 18.9798 8.34229C18.9798 4.51868 15.869 1.4079 12.0454 1.4079Z" />
    </g>
  </symbol>
  <symbol xmlns="http://www.w3.org/2000/svg" viewBox="0 0 36 36" id="tel">
    <path d="M26.6612 20.2456C25.3099 21.5985 23.1991 23.7115 21.4317 25.4913C19.3308 24.1161 17.4319 22.5986 15.9048 21.0715C14.019 19.1857 11.6608 16.5006 10.3863 14.5986C12.0043 12.9921 14.1203 10.8789 15.673 9.32766L6.3453 0L1.69122 4.57031L1.68435 4.57717C0.381923 5.8796 -0.16959 7.65746 0.0451929 9.86132C0.732112 16.9085 9.34978 27.1162 16.9677 32.2286C21.3781 35.1886 27.7175 37.9286 31.4672 34.1787C34.1896 31.4566 35.2302 30.3475 35.2734 30.3016L35.9715 29.5562L26.6612 20.2456ZM29.9747 32.6862C27.1361 35.5245 21.5067 32.7326 18.1438 30.4758C11.0746 25.7313 2.76595 16.0145 2.14605 9.65642C1.99554 8.11339 2.34133 6.90765 3.17355 6.07324L6.33184 2.9718L12.6866 9.32683C9.46376 12.5447 8.49285 13.5038 7.72078 14.2682L8.1303 14.9741C9.37395 17.1164 12.2584 20.4104 14.4123 22.5642C16.7749 24.9269 19.2001 26.5949 21.736 28.1821L22.3301 27.5825C23.6336 26.2672 25.528 24.3679 26.662 23.2319L33.0256 29.5955C32.4361 30.2039 31.4515 31.2091 29.9747 32.6862Z" />
  </symbol>
  <symbol xmlns="http://www.w3.org/2000/svg" viewBox="0 0 44 44" id="circle">
    <circle cx="21.9978" cy="21.9978" r="18.8571" fill="white" />
    <path d="M22 44C34.1 44 44 34.1 44 22C44 9.9 34.1 0 22 0C9.9 0 0 9.9 0 22C0 34.1 9.9 44 22 44ZM22 39.6C15.18 39.6 9.02 35.64 6.16 29.7L16.72 25.96C18.04 27.72 20.02 28.6 22 28.6C23.98 28.6 25.96 27.72 27.06 26.18L37.84 29.7C34.98 35.64 28.82 39.6 22 39.6ZM24.2 4.62C32.78 5.72 39.6 13.2 39.6 22C39.6 23.32 39.38 24.42 39.16 25.74L28.6 22C28.6 19.14 26.84 16.72 24.2 15.84V4.62ZM22 19.8C23.32 19.8 24.2 20.68 24.2 22C24.2 23.32 23.32 24.2 22 24.2C20.68 24.2 19.8 23.32 19.8 22C19.8 20.68 20.68 19.8 22 19.8ZM19.8 4.62V15.84C17.16 16.72 15.4 19.14 15.4 22L4.84 25.74C4.62 24.42 4.4 23.32 4.4 22C4.4 12.98 11.22 5.72 19.8 4.62Z" />
  </symbol>
  <symbol xmlns="http://www.w3.org/2000/svg" viewBox="0 0 34 38" id="calendar" fill="none">
    <path d="M24.5 2V9.55556M9.5 2V9.55556M2 17.1111H32M2 9.55556C2 8.55363 2.39509 7.59273 3.09835 6.88426C3.80161 6.17579 4.75544 5.77778 5.75 5.77778H28.25C29.2446 5.77778 30.1984 6.17579 30.9017 6.88426C31.6049 7.59273 32 8.55363 32 9.55556V32.2222C32 33.2242 31.6049 34.185 30.9017 34.8935C30.1984 35.602 29.2446 36 28.25 36H5.75C4.75544 36 3.80161 35.602 3.09835 34.8935C2.39509 34.185 2 33.2242 2 32.2222V9.55556Z" stroke-width="3" stroke-linecap="round" stroke-linejoin="round" />
  </symbol>
  <symbol xmlns="http://www.w3.org/2000/svg" viewBox="0 0 512 512" id="exit">
    <path d="M307.69 347.47a24 24 0 0 0-24 24v58.47a33.93 33.93 0 0 1-33.89 33.9H82.06a33.93 33.93 0 0 1-33.89-33.9V82.06a33.93 33.93 0 0 1 33.89-33.9H249.8a33.93 33.93 0 0 1 33.89 33.9v50.54a24 24 0 0 0 48 0V82.06A82 82 0 0 0 249.8.16H82.06A82 82 0 0 0 .17 82.06v347.88a82 82 0 0 0 81.89 81.9H249.8a82 82 0 0 0 81.89-81.9v-58.47a24 24 0 0 0-24-24z" opacity="1" data-original="#000000" class=""></path>
    <path d="m504.77 238.53-85.41-85.35a24 24 0 0 0-33.6-.33c-9.7 9.33-9.47 25.13.05 34.65l44.47 44.5h-208a24 24 0 0 0-24 24 24 24 0 0 0 24 24h208l-44.9 44.9a24 24 0 0 0 33.94 33.95l85.45-85.41a24.66 24.66 0 0 0 0-34.91z" opacity="1" data-original="#000000" class=""></path>
  </symbol>
  <symbol xmlns="http://www.w3.org/2000/svg" viewBox="0 0 24 24" id="eye">
    <path fill-rule="evenodd" clip-rule="evenodd" d="M1.5 12c0-2.25 3.75-7.5 10.5-7.5S22.5 9.75 22.5 12s-3.75 7.5-10.5 7.5S1.5 14.25 1.5 12zM12 16.75a4.75 4.75 0 1 0 0-9.5 4.75 4.75 0 0 0 0 9.5zM14.7 12a2.7 2.7 0 1 1-5.4 0 2.7 2.7 0 0 1 5.4 0z"/>
  </symbol>
  <symbol xmlns="http://www.w3.org/2000/svg" viewBox="-0.5 0 25 25" id="info" fill="none">
    <path d="M12 21.5C17.1086 21.5 21.25 17.3586 21.25 12.25C21.25 7.14137 17.1086 3 12 3C6.89137 3 2.75 7.14137 2.75 12.25C2.75 17.3586 6.89137 21.5 12 21.5Z" stroke="#000000" stroke-width="1.5" stroke-linecap="round" stroke-linejoin="round"/>
    <path d="M12.9309 8.15005C12.9256 8.39231 12.825 8.62272 12.6509 8.79123C12.4767 8.95974 12.2431 9.05271 12.0008 9.05002C11.8242 9.04413 11.6533 8.98641 11.5093 8.884C11.3652 8.7816 11.2546 8.63903 11.1911 8.47415C11.1275 8.30927 11.1139 8.12932 11.152 7.95675C11.19 7.78419 11.278 7.6267 11.405 7.50381C11.532 7.38093 11.6923 7.29814 11.866 7.26578C12.0397 7.23341 12.2192 7.25289 12.3819 7.32181C12.5446 7.39072 12.6834 7.506 12.781 7.65329C12.8787 7.80057 12.9308 7.97335 12.9309 8.15005ZM11.2909 16.5301V11.1501C11.2882 11.0556 11.3046 10.9615 11.3392 10.8736C11.3738 10.7857 11.4258 10.7057 11.4922 10.6385C11.5585 10.5712 11.6378 10.518 11.7252 10.4822C11.8126 10.4464 11.9064 10.4286 12.0008 10.43C12.094 10.4299 12.1863 10.4487 12.272 10.4853C12.3577 10.5218 12.4352 10.5753 12.4997 10.6426C12.5642 10.7099 12.6143 10.7895 12.6472 10.8767C12.6801 10.9639 12.6949 11.0569 12.6908 11.1501V16.5301C12.6908 16.622 12.6727 16.713 12.6376 16.7979C12.6024 16.8828 12.5508 16.96 12.4858 17.025C12.4208 17.09 12.3437 17.1415 12.2588 17.1767C12.1738 17.2119 12.0828 17.23 11.9909 17.23C11.899 17.23 11.8079 17.2119 11.723 17.1767C11.6381 17.1415 11.5609 17.09 11.4959 17.025C11.4309 16.96 11.3793 16.8828 11.3442 16.7979C11.309 16.713 11.2909 16.622 11.2909 16.5301Z" fill="#000000"/>
  </symbol>
  <symbol xmlns="http://www.w3.org/2000/svg" viewBox="0 0 24 24" id="fullscreen">
    <path fill-rule="evenodd" clip-rule="evenodd" d="M18 4.654v.291a10 10 0 0 0-1.763 1.404l-2.944 2.944a1 1 0 0 0 1.414 1.414l2.933-2.932A9.995 9.995 0 0 0 19.05 6h.296l-.09.39A9.998 9.998 0 0 0 19 8.64v.857a1 1 0 1 0 2 0V4.503a1.5 1.5 0 0 0-1.5-1.5L14.5 3a1 1 0 1 0 0 2h.861a10 10 0 0 0 2.249-.256l.39-.09zM4.95 18a10 10 0 0 1 1.41-1.775l2.933-2.932a1 1 0 0 1 1.414 1.414l-2.944 2.944A9.998 9.998 0 0 1 6 19.055v.291l.39-.09A9.998 9.998 0 0 1 8.64 19H9.5a1 1 0 1 1 0 2l-5-.003a1.5 1.5 0 0 1-1.5-1.5V14.5a1 1 0 1 1 2 0v.861a10 10 0 0 1-.256 2.249l-.09.39h.295z"/>
  </symbol>
  <symbol xmlns="http://www.w3.org/2000/svg" viewBox="0 0 24 24" id="fullscreen-exit">
    <path d="M21.7071 3.70711L16.4142 9H20C20.5523 9 21 9.44772 21 10C21 10.5523 20.5523 11 20 11H14.0007L13.997 11C13.743 10.9992 13.4892 10.9023 13.295 10.7092L13.2908 10.705C13.196 10.6096 13.1243 10.4999 13.0759 10.3828C13.0273 10.2657 13.0004 10.1375 13 10.003L13 10V4C13 3.44772 13.4477 3 14 3C14.5523 3 15 3.44772 15 4V7.58579L20.2929 2.29289C20.6834 1.90237 21.3166 1.90237 21.7071 2.29289C22.0976 2.68342 22.0976 3.31658 21.7071 3.70711Z"/>
    <path d="M9 20C9 20.5523 9.44772 21 10 21C10.5523 21 11 20.5523 11 20V14.0007C11 13.9997 11 13.998 11 13.997C10.9992 13.7231 10.8883 13.4752 10.7092 13.295C10.7078 13.2936 10.7064 13.2922 10.705 13.2908C10.6096 13.196 10.4999 13.1243 10.3828 13.0759C10.2657 13.0273 10.1375 13.0004 10.003 13C10.002 13 10.001 13 10 13H4C3.44772 13 3 13.4477 3 14C3 14.5523 3.44772 15 4 15H7.58579L2.29289 20.2929C1.90237 20.6834 1.90237 21.3166 2.29289 21.7071C2.68342 22.0976 3.31658 22.0976 3.70711 21.7071L9 16.4142V20Z"/>
  </symbol>
  <symbol xmlns="http://www.w3.org/2000/svg" viewBox="-3 0 24 24" id="yandex-marker">
    <path d="m8.075 23.52c-6.811-9.878-8.075-10.891-8.075-14.52 0-4.971 4.029-9 9-9s9 4.029 9 9c0 3.629-1.264 4.64-8.075 14.516-.206.294-.543.484-.925.484s-.719-.19-.922-.48l-.002-.004zm.925-10.77c2.07 0 3.749-1.679 3.749-3.75s-1.679-3.75-3.75-3.75-3.75 1.679-3.75 3.75c0 2.071 1.679 3.75 3.75 3.75z"/>
  </symbol>
  <symbol xmlns="http://www.w3.org/2000/svg" viewBox="0 0 439.875 439.875" id="pdf">
    <path d="M114.75,153H57.375v38.25v95.625H76.5V229.5h38.25c21.038,0,38.25-17.213,38.25-38.25C153,170.212,135.788,153,114.75,153 z M114.75,210.375H76.5v-38.25h38.25c11.475,0,19.125,7.65,19.125,19.125S126.225,210.375,114.75,210.375z"/>
		<path d="M382.5,95.625H57.375C24.862,95.625,0,120.487,0,153v133.875c0,32.513,24.862,57.375,57.375,57.375H382.5 c32.513,0,57.375-24.862,57.375-57.375V153C439.875,120.487,415.013,95.625,382.5,95.625z M420.75,286.875 c0,21.037-17.213,38.25-38.25,38.25H57.375c-21.038,0-38.25-17.213-38.25-38.25V153c0-21.038,17.212-38.25,38.25-38.25H382.5 c21.037,0,38.25,17.212,38.25,38.25V286.875z"/>
		<path d="M229.5,153h-57.375v133.875H229.5c21.037,0,38.25-17.213,38.25-38.25V191.25C267.75,170.212,250.537,153,229.5,153z M248.625,248.625c0,11.475-7.65,19.125-19.125,19.125h-38.25v-95.625h38.25c11.475,0,19.125,7.65,19.125,19.125V248.625z"/>
		<polygon points="286.875,286.875 306,286.875 306,229.5 363.375,229.5 363.375,210.375 306,210.375 306,172.125 382.5,172.125 382.5,153 286.875,153"/>
  </symbol>
</svg>