<svg width="36" height="36" viewBox="0 0 36 36" fill="none" xmlns="http://www.w3.org/2000/svg">
<path d="M33.7595 7.49895V5.39844H31.6589V7.49895H6.45284V5.39844H4.35233V8.5492C4.35233 10.2865 2.93889 11.7 1.20156 11.7H0.151307V14.8507C0.151307 16.5881 1.56474 18.0015 3.30207 18.0015H3.50085L0 30.6045H10.9219L12.6723 24.303H15.9051C18.8007 24.303 21.1564 21.9473 21.1564 19.0517V18.0015H36V7.49895H33.7595ZM6.34732 9.59946H14.8549V11.7H5.39964C5.85937 11.089 6.18922 10.3751 6.34732 9.59946ZM19.0559 19.0517C19.0559 20.7891 17.6425 22.2025 15.9051 22.2025H13.2558L14.1661 18.9253L16.1848 20.8602L17.6384 19.3438L16.238 18.0015H19.0559V19.0517ZM33.8995 15.901H12.8262L9.32535 28.504H2.7635L6.26435 15.901H3.30207C2.72296 15.901 2.25182 15.4298 2.25182 14.8507V13.8005H16.9554V9.59946H33.8995V15.901Z" fill="#2D3A3D"/>
<path d="M31.4504 20.7987C30.4574 20.3818 29.2751 20.1016 28.5082 20.1016H23.257V26.4031H28.5082C29.275 26.4031 30.4574 26.123 31.4504 25.7059C32.9827 25.0625 33.7595 24.237 33.7595 23.2523C33.7595 22.2676 32.9826 21.4421 31.4504 20.7987ZM30.3624 23.8779C29.6119 24.1567 28.8616 24.3026 28.5083 24.3026H25.3575V22.2021H28.5083C28.8617 22.2021 29.612 22.348 30.3624 22.6268C31.0132 22.8687 31.3799 23.1039 31.557 23.2523C31.3799 23.4008 31.0132 23.636 30.3624 23.8779Z" fill="#2D3A3D"/>
</svg>
