<svg width="36" height="36" viewBox="0 0 36 36" fill="none" xmlns="http://www.w3.org/2000/svg">
<path d="M34.945 21.2344H32.8356V17.0156H25.0512L19.7859 9.57009C20.8768 8.25694 23.0397 5.13809 23.0397 1.05469V0H21.985C18.5194 0 16.7588 0.373359 15.0561 0.734344C13.4025 1.08492 11.8406 1.41616 8.65926 1.4227L7.45445 1.42516L7.61631 2.619C7.95036 5.0831 9.00716 7.09798 9.91574 8.43743H9.57142C8.32576 8.43743 7.19211 7.70273 6.6834 6.56585L6.29598 5.70002L4.37047 6.56149L4.75797 7.42739C5.60594 9.32245 7.49537 10.5469 9.57142 10.5469H10.0732L2.84097 20.7736C1.76828 22.2905 1.15445 24.0468 1.06572 25.8525C0.982396 27.548 1.35723 29.2534 2.14972 30.7844C2.94215 32.3152 4.11805 33.6059 5.55046 34.5169C7.07603 35.4871 8.86436 36 10.7222 36H32.8356V31.7812H34.945V21.2344ZM32.8356 25.4531H22.9916V23.3438H32.8356V25.4531ZM30.7262 21.2344H20.8822V19.125H30.7262V21.2344ZM9.93887 3.51091C12.5276 3.42682 14.0323 3.10781 15.4936 2.79787C16.9597 2.48695 18.3545 2.19129 20.8689 2.12372C20.5106 5.25776 18.6798 7.62905 17.9766 8.4375H12.5729C11.9754 7.75097 10.5711 5.94605 9.93887 3.51091ZM10.7222 33.8906C7.84841 33.8906 5.34409 32.367 4.02306 29.8148C2.70196 27.2625 2.9039 24.338 4.56327 21.9916L12.6567 10.5469H17.893L22.4676 17.0156H18.7728V23.3438H20.8822V29.6719H18.7728V33.8906H10.7222ZM30.7262 33.8906H20.8822V31.7812H30.7262V33.8906ZM22.9916 29.6719V27.5625H32.8356V29.6719H22.9916Z" fill="#2D3A3D"/>
</svg>
