<svg width="36" height="36" viewBox="0 0 36 36" fill="none" xmlns="http://www.w3.org/2000/svg">
<g clip-path="url(#clip0_1_574)">
<path d="M30.728 5.27203C27.3281 1.87235 22.808 0 18 0C13.192 0 8.67185 1.87235 5.27203 5.27203C1.87235 8.67185 0 13.192 0 18C0 22.808 1.87235 27.3281 5.27203 30.728C8.67185 34.1276 13.192 36 18 36C22.808 36 27.3281 34.1276 30.728 30.728C34.1276 27.3281 36 22.808 36 18C36 13.192 34.1276 8.67185 30.728 5.27203ZM18 33.8906C9.23787 33.8906 2.10938 26.7621 2.10938 18C2.10938 9.23787 9.23787 2.10938 18 2.10938C26.7621 2.10938 33.8906 9.23787 33.8906 18C33.8906 26.7621 26.7621 33.8906 18 33.8906Z" fill="#2D3A3D"/>
<path d="M29.3457 11.4105C28.2208 9.47795 26.6094 7.85303 24.6858 6.71158L23.778 6.17284L19.6221 13.1912C19.1123 13.0188 18.5672 12.9239 18 12.9239C17.4604 12.9239 16.9406 13.0093 16.4523 13.1661L12.4055 6.08411L11.4894 6.60871C9.51795 7.73772 7.86371 9.36777 6.70552 11.3227C5.5119 13.3375 4.88098 15.6465 4.88098 18.0003V19.055H13.035C13.2574 20.1029 13.8038 21.0321 14.5644 21.7326L10.4082 28.7515L11.3144 29.2892C13.3321 30.4865 15.644 31.1194 18 31.1194C20.286 31.1194 22.5373 30.5221 24.5107 29.3919L25.4251 28.8683L21.3776 21.7852C22.1684 21.0788 22.7371 20.1294 22.9651 19.0551H31.1191V18.0004C31.1191 15.6822 30.5059 13.4034 29.3457 11.4105ZM20.9667 18C20.9667 19.6359 19.6358 20.9667 18 20.9667C16.3642 20.9667 15.0333 19.6359 15.0333 18C15.0333 16.3641 16.3642 15.0333 18 15.0333C19.6358 15.0333 20.9667 16.3641 20.9667 18ZM13.0348 16.9456H7.04126C7.34923 13.7656 9.03694 10.857 11.6467 9.00798L14.6222 14.215C13.8315 14.9215 13.2627 15.8712 13.0348 16.9456ZM22.5226 28.0406C21.1088 28.6771 19.5643 29.01 18 29.01C16.3769 29.01 14.7792 28.6524 13.3231 27.9689L16.3785 22.8089C16.888 22.9812 17.433 23.076 18 23.076C18.5395 23.076 19.0593 22.9907 19.5474 22.834L22.5226 28.0406ZM22.9653 16.9456C22.743 15.8977 22.1966 14.9684 21.4361 14.2678L24.4911 9.10853C27.0185 10.9611 28.6546 13.831 28.9584 16.9457L22.9653 16.9456Z" fill="#2D3A3D"/>
</g>
<defs>
<clipPath id="clip0_1_574">
<rect width="36" height="36" fill="white"/>
</clipPath>
</defs>
</svg>
