<svg width="36" height="36" viewBox="0 0 36 36" fill="none" xmlns="http://www.w3.org/2000/svg">
<g clip-path="url(#clip0_1_586)">
<path d="M34.506 10.2834C33.3604 8.35448 31.7508 6.51968 30.6641 5.5571C28.2917 3.45526 26.3128 3.50644 25.3441 3.72413C24.9371 3.81561 24.5634 3.96643 24.2344 4.16759C22.5442 2.91329 20.488 2.29883 18.0003 2.29883C15.5127 2.29883 13.4564 2.91329 11.7662 4.16766C11.4372 3.9665 11.0635 3.81561 10.6566 3.7242C9.68815 3.50658 7.70893 3.45533 5.33673 5.5571C4.24991 6.51975 2.64046 8.35455 1.49465 10.2834C-0.0565821 12.8949 -0.402097 15.0074 0.467667 16.5625C1.52966 18.4612 3.14052 18.947 4.44095 19.0669C4.12131 20.3082 3.92394 21.6362 3.92394 23.2909C3.92394 25.4841 4.42316 27.371 5.40788 28.8992C6.2735 30.2427 7.51972 31.3186 9.11187 32.0969C12.0536 33.5348 15.5936 33.7011 18.0004 33.7011C20.4072 33.7011 23.9473 33.5348 26.8889 32.0969C28.481 31.3186 29.7273 30.2427 30.5929 28.8992C31.5776 27.371 32.0769 25.484 32.0769 23.2909C32.0769 21.6363 31.8795 20.3083 31.5599 19.0669C32.8603 18.947 34.4712 18.461 35.5331 16.5625C36.4028 15.0075 36.0572 12.8949 34.506 10.2834ZM5.1246 16.8965C3.97372 16.8663 3.03786 16.6435 2.39092 15.4869C1.95203 14.7021 2.3159 13.2157 3.38936 11.4086C4.40811 9.69351 5.8704 8.02809 6.79796 7.20635C8.32979 5.84904 9.47813 5.7743 10.0184 5.84665C8.41057 7.80668 7.42508 10.354 6.60094 12.8306C6.25965 13.8561 5.93073 14.7317 5.61249 15.5787C5.44234 16.0317 5.27865 16.4675 5.1246 16.8965ZM16.5628 24.1211C15.9928 23.5514 15.6944 22.9533 15.6944 22.657C15.6944 22.3924 15.7398 22.3734 15.9083 22.3025C16.3888 22.1003 17.3324 22.077 18.0003 22.077C18.6683 22.077 19.6119 22.1003 20.0923 22.3025C20.2609 22.3734 20.3062 22.3925 20.3062 22.657C20.3062 22.9533 20.008 23.5513 19.4379 24.1211C18.8773 24.6814 18.2788 24.9836 18.0003 24.9836C17.7217 24.9836 17.1234 24.6814 16.5628 24.1211ZM25.9212 30.1172C24.2302 30.9437 21.9915 31.392 19.1021 31.4809V26.9672C19.9673 26.6334 20.6718 26.0034 20.9956 25.6797C21.4509 25.2247 22.5098 24.0193 22.5098 22.6571C22.5098 21.5427 21.9548 20.6954 20.9469 20.2714C20.2752 19.9888 19.4214 19.8735 18.0004 19.8735C16.5794 19.8735 15.7257 19.9888 15.0538 20.2714C14.046 20.6954 13.4909 21.5426 13.4909 22.6571C13.4909 24.0193 14.5499 25.2247 15.0051 25.6797C15.329 26.0034 16.0336 26.6334 16.8986 26.9672V31.4809C14.0092 31.3921 11.7706 30.9439 10.0795 30.1172C7.42015 28.8173 6.12739 26.5844 6.12739 23.2909C6.12739 20.4733 6.77666 18.7452 7.67518 16.3536C7.98547 15.5277 8.33703 14.5917 8.69161 13.5263C10.6393 7.67379 12.6996 4.50235 18.0003 4.50235C23.3011 4.50235 25.3614 7.67386 27.309 13.5263C27.6635 14.5918 28.0152 15.5277 28.3254 16.3536C29.2239 18.7452 29.8732 20.4732 29.8732 23.2909C29.8733 26.5844 28.5805 28.8173 25.9212 30.1172ZM33.6099 15.4869C32.9629 16.6436 32.027 16.8662 30.8761 16.8965C30.722 16.4675 30.5585 16.0317 30.3883 15.5787C30.0702 14.7318 29.7412 13.8561 29.3999 12.8306C28.5757 10.354 27.5902 7.80668 25.9824 5.84665C26.5227 5.77444 27.6711 5.84904 29.203 7.20642C30.1306 8.02802 31.5928 9.69337 32.6115 11.4085C33.6849 13.2157 34.0488 14.7022 33.6099 15.4869Z" fill="#2D3A3D"/>
<path d="M14.334 14.0098C13.5368 14.0098 12.8881 14.6651 12.8881 15.4744C12.8881 16.2835 13.5368 16.9395 14.334 16.9395C15.1322 16.9395 15.7808 16.2835 15.7808 15.4744C15.7808 14.6651 15.1322 14.0098 14.334 14.0098Z" fill="#2D3A3D"/>
<path d="M21.6562 14C20.8513 14 20.1984 14.6609 20.1984 15.4761C20.1984 16.2913 20.8513 16.9521 21.6562 16.9521C22.4602 16.9521 23.113 16.2913 23.113 15.4761C23.1131 14.6609 22.4602 14 21.6562 14Z" fill="#2D3A3D"/>
</g>
<defs>
<clipPath id="clip0_1_586">
<rect width="36" height="36" fill="white" transform="translate(0.000366211)"/>
</clipPath>
</defs>
</svg>
