<svg width="36" height="36" viewBox="0 0 36 36" fill="none" xmlns="http://www.w3.org/2000/svg">
<g clip-path="url(#clip0_1_581)">
<path d="M31.7568 13.3084C30.0504 10.3301 27.3676 9.54947 24.7561 9.51684C25.3263 8.65357 25.6912 7.55545 25.8233 6.28592C25.9497 5.07208 25.8223 4.10362 25.8168 4.06298L25.7093 3.26636L24.9126 3.15885C24.8719 3.15337 23.9035 3.0259 22.6896 3.15231C21.0037 3.32774 19.6197 3.91336 18.6873 4.84589C18.5797 4.95346 18.4773 5.06772 18.379 5.18711C18.0155 4.18869 17.4712 3.21552 16.664 2.40843C13.6244 -0.631386 8.22947 0.0570963 8.00131 0.0878924L7.20462 0.195397L7.09712 0.992018C7.06632 1.22018 6.37791 6.61512 9.41765 9.65479C9.42503 9.66217 9.4327 9.66899 9.44008 9.6763C7.4479 10.026 5.5564 11.0164 4.24327 13.3084C2.78812 15.8482 2.38686 19.9028 3.19607 23.8898C4.10617 28.3742 6.30823 32.0295 9.39642 34.1823C12.4214 36.2912 14.3639 36.0813 16.2425 35.8782C16.8027 35.8177 17.382 35.755 18.0001 35.755C18.6181 35.755 19.1974 35.8177 19.7576 35.8782C20.3183 35.9388 20.8846 36 21.4837 36C22.8919 35.9999 24.4814 35.6617 26.6037 34.1823C29.6919 32.0294 31.8939 28.3742 32.804 23.8897C33.6132 19.9028 33.2119 15.8482 31.7568 13.3084ZM19.0712 9.29937C19.0779 9.20874 19.0861 9.11607 19.0966 9.02143C19.1868 8.20041 19.4478 7.06834 20.1788 6.33732C21.1453 5.37076 22.7731 5.20574 23.7697 5.20546C23.7693 5.47081 23.7569 5.78116 23.7205 6.11261C23.6302 6.93369 23.3692 8.06577 22.6382 8.79679C21.6777 9.75723 20.0644 9.92612 19.0663 9.92844C19.0719 9.73691 19.0741 9.52605 19.0712 9.29937ZM9.12846 2.11924C10.5631 2.07129 13.4798 2.20713 15.1726 3.89986C16.632 5.35923 16.9339 7.72701 16.9588 9.27139C16.9438 9.51234 16.9382 9.73867 16.9382 9.94433C16.4955 9.9586 15.9149 9.95509 15.2735 9.89455C14.8944 9.83443 14.4965 9.77319 14.0852 9.71786C12.9472 9.48176 11.77 9.0241 10.9092 8.16329C9.216 6.47007 9.08044 3.55302 9.12846 2.11924ZM30.7368 23.4702C29.9467 27.3635 28.0006 30.6373 25.3974 32.4519C23.02 34.1091 21.7467 33.9713 19.9842 33.7811C19.3684 33.7145 18.7317 33.6456 18.0001 33.6456C17.2684 33.6456 16.6317 33.7145 16.0159 33.7811C14.2534 33.9713 12.9801 34.1091 10.6027 32.4519C7.99962 30.6372 6.05342 27.3635 5.26327 23.4702C4.56234 20.0167 4.88036 16.4395 6.07346 14.357C6.95762 12.8138 8.2249 11.9726 10.0616 11.7099C11.7549 11.4677 13.6177 11.7657 15.2611 12.0286C16.3095 12.1963 17.2149 12.3412 18 12.3412C18.7851 12.3412 19.6905 12.1962 20.7389 12.0286C22.3823 11.7657 24.2451 11.4676 25.9383 11.7099C27.7751 11.9726 29.0424 12.8138 29.9265 14.357C31.1197 16.4395 31.4377 20.0167 30.7368 23.4702Z" fill="#2D3A3D"/>
</g>
<defs>
<clipPath id="clip0_1_581">
<rect width="36" height="36" fill="white"/>
</clipPath>
</defs>
</svg>
