<svg width="53" height="42" viewBox="0 0 53 42" fill="none" xmlns="http://www.w3.org/2000/svg">
<rect x="0.5" y="0.5" width="47" height="28" rx="6.5" fill="#D9D9D9" stroke="#2D3A3D"/>
<rect x="1" y="9" width="46" height="6" fill="#717171"/>
<mask id="path-3-outside-1_1_1805" maskUnits="userSpaceOnUse" x="37" y="20" width="16" height="15" fill="black">
<rect fill="white" x="37" y="20" width="16" height="15"/>
<path d="M50.624 28.8H46.376V33H43.808V28.8H39.56V26.4H43.808V22.2H46.376V26.4H50.624V28.8Z"/>
</mask>
<path d="M50.624 28.8H46.376V33H43.808V28.8H39.56V26.4H43.808V22.2H46.376V26.4H50.624V28.8Z" fill="#2D3A3D"/>
<path d="M50.624 28.8V30.8H52.624V28.8H50.624ZM46.376 28.8V26.8H44.376V28.8H46.376ZM46.376 33V35H48.376V33H46.376ZM43.808 33H41.808V35H43.808V33ZM43.808 28.8H45.808V26.8H43.808V28.8ZM39.56 28.8H37.56V30.8H39.56V28.8ZM39.56 26.4V24.4H37.56V26.4H39.56ZM43.808 26.4V28.4H45.808V26.4H43.808ZM43.808 22.2V20.2H41.808V22.2H43.808ZM46.376 22.2H48.376V20.2H46.376V22.2ZM46.376 26.4H44.376V28.4H46.376V26.4ZM50.624 26.4H52.624V24.4H50.624V26.4ZM50.624 26.8H46.376V30.8H50.624V26.8ZM44.376 28.8V33H48.376V28.8H44.376ZM46.376 31H43.808V35H46.376V31ZM45.808 33V28.8H41.808V33H45.808ZM43.808 26.8H39.56V30.8H43.808V26.8ZM41.56 28.8V26.4H37.56V28.8H41.56ZM39.56 28.4H43.808V24.4H39.56V28.4ZM45.808 26.4V22.2H41.808V26.4H45.808ZM43.808 24.2H46.376V20.2H43.808V24.2ZM44.376 22.2V26.4H48.376V22.2H44.376ZM46.376 28.4H50.624V24.4H46.376V28.4ZM48.624 26.4V28.8H52.624V26.4H48.624Z" fill="white" mask="url(#path-3-outside-1_1_1805)"/>
</svg>
