<svg width="36" height="36" viewBox="0 0 36 36" fill="none" xmlns="http://www.w3.org/2000/svg">
<g clip-path="url(#clip0_1_12869)">
<path d="M35.9809 22.3705L34.153 6.67384C33.9753 5.14856 32.5898 4.05225 31.0646 4.22979L4.15616 7.36347C3.44066 7.44679 2.79357 7.798 2.33415 8.35248C2.14832 8.5767 2.17947 8.90914 2.40369 9.09497C2.62799 9.28081 2.96036 9.24966 3.14626 9.02537C3.43166 8.68098 3.83363 8.4628 4.27815 8.41105L31.1867 5.27744C31.6456 5.22394 32.0981 5.3524 32.4606 5.63927C32.8229 5.92607 33.0519 6.33684 33.1054 6.79591L34.9334 22.4925C35.0438 23.4402 34.3626 24.3009 33.415 24.4113L32.6602 24.4992V23.9273C32.6602 23.6361 32.4241 23.4 32.1329 23.4C31.8417 23.4 31.6056 23.6361 31.6056 23.9273V29.0068C31.6056 29.9608 30.8294 30.7369 29.8754 30.7369H2.78486C1.83086 30.7369 1.05468 29.9608 1.05468 29.0068V13.204C1.05468 12.25 1.83086 11.4738 2.78486 11.4738H29.8753C30.8293 11.4738 31.6055 12.25 31.6055 13.204V21.6698C31.6055 21.961 31.8416 22.1971 32.1328 22.1971C32.4241 22.1971 32.6602 21.961 32.6602 21.6698V13.204C32.6602 11.6685 31.4109 10.4192 29.8753 10.4192H2.78486C1.24931 10.4191 0 11.6684 0 13.204V29.0068C0 30.5423 1.24931 31.7916 2.78486 31.7916H29.8753C31.4109 31.7916 32.6602 30.5423 32.6602 29.0068V25.561L33.5369 25.4589C34.2757 25.3728 34.9369 25.0042 35.3985 24.4209C35.8602 23.8375 36.067 23.1094 35.9809 22.3705Z" fill="black"/>
<path d="M3.91016 25.0195H8.4252C8.71644 25.0195 8.95255 24.7834 8.95255 24.4922C8.95255 24.201 8.71644 23.9648 8.4252 23.9648H3.91016C3.61892 23.9648 3.38281 24.201 3.38281 24.4922C3.38281 24.7834 3.61892 25.0195 3.91016 25.0195Z" fill="black"/>
<path d="M3.91016 27.8438H15.1978C15.4891 27.8438 15.7252 27.6076 15.7252 27.3164C15.7252 27.0252 15.4891 26.7891 15.1978 26.7891H3.91016C3.61892 26.7891 3.38281 27.0252 3.38281 27.3164C3.38281 27.6076 3.61892 27.8438 3.91016 27.8438Z" fill="black"/>
<path d="M15.1986 23.9648H10.6836C10.3924 23.9648 10.1562 24.201 10.1562 24.4922C10.1562 24.7834 10.3924 25.0195 10.6836 25.0195H15.1986C15.4899 25.0195 15.726 24.7834 15.726 24.4922C15.726 24.201 15.4899 23.9648 15.1986 23.9648Z" fill="black"/>
<path d="M21.9721 23.9648H17.457C17.1658 23.9648 16.9297 24.201 16.9297 24.4922C16.9297 24.7834 17.1658 25.0195 17.457 25.0195H21.9721C22.2633 25.0195 22.4994 24.7834 22.4994 24.4922C22.4994 24.201 22.2633 23.9648 21.9721 23.9648Z" fill="black"/>
<path d="M23.7031 24.4922C23.7031 24.7834 23.9392 25.0195 24.2305 25.0195H28.7456C29.0368 25.0195 29.2729 24.7834 29.2729 24.4922C29.2729 24.201 29.0368 23.9648 28.7456 23.9648H24.2305C23.9392 23.9648 23.7031 24.201 23.7031 24.4922Z" fill="black"/>
<path d="M5.03888 22.1947H8.4252C9.33842 22.1947 10.0813 21.4518 10.0813 20.5386V18.2811C10.0813 17.3679 9.33842 16.625 8.4252 16.625H5.03888C4.12573 16.625 3.38281 17.3679 3.38281 18.2811V20.5386C3.38281 21.4518 4.12573 22.1947 5.03888 22.1947ZM4.4375 18.2811C4.4375 17.9495 4.70729 17.6797 5.03888 17.6797H8.4252C8.7568 17.6797 9.02666 17.9495 9.02666 18.2811V20.5386C9.02666 20.8702 8.75687 21.14 8.4252 21.14H5.03888C4.70729 21.14 4.4375 20.8703 4.4375 20.5386V18.2811Z" fill="black"/>
<path d="M6.16797 19.9375H7.29677C7.588 19.9375 7.82411 19.7014 7.82411 19.4102C7.82411 19.1189 7.588 18.8828 7.29677 18.8828H6.16797C5.87673 18.8828 5.64062 19.1189 5.64062 19.4102C5.64062 19.7014 5.87673 19.9375 6.16797 19.9375Z" fill="black"/>
<path d="M26.7848 20.4462C26.8602 20.4837 26.9404 20.5015 27.0193 20.5015C27.2131 20.5015 27.3997 20.3943 27.4918 20.2089C27.9267 19.3349 28.1472 18.4013 28.1472 17.4343C28.1472 16.4672 27.9267 15.5337 27.4918 14.6597C27.362 14.3989 27.0456 14.2928 26.7848 14.4225C26.5241 14.5522 26.4178 14.8688 26.5475 15.1295C26.9092 15.8563 27.0925 16.6318 27.0925 17.4344C27.0925 18.237 26.9092 19.0124 26.5475 19.7392C26.4177 19.9999 26.524 20.3164 26.7848 20.4462Z" fill="black"/>
<path d="M24.7607 19.431C24.8364 19.4688 24.9167 19.4867 24.9958 19.4867C25.1893 19.4867 25.3757 19.3797 25.4681 19.1948C25.7481 18.6337 25.8901 18.0429 25.8901 17.4387C25.8901 16.8345 25.7481 16.2436 25.4681 15.6825C25.3379 15.422 25.0213 15.3162 24.7606 15.4463C24.5001 15.5764 24.3943 15.8931 24.5244 16.1537C24.7308 16.5672 24.8355 16.9995 24.8355 17.4387C24.8355 17.8778 24.7308 18.3102 24.5244 18.7236C24.3944 18.9842 24.5002 19.301 24.7607 19.431Z" fill="black"/>
<path d="M22.7412 18.4143C22.8179 18.4534 22.8996 18.4719 22.9802 18.4719C23.1722 18.4719 23.3573 18.3666 23.4505 18.1839C23.5715 17.9462 23.6329 17.6956 23.6329 17.4391C23.6329 17.1825 23.5715 16.9319 23.4505 16.6942C23.3181 16.4348 23.0006 16.3316 22.7411 16.4638C22.4817 16.5961 22.3785 16.9136 22.5107 17.1731C22.5555 17.261 22.5782 17.3505 22.5782 17.4391C22.5782 17.5277 22.5555 17.6172 22.5107 17.7051C22.3785 17.9645 22.4817 18.2821 22.7412 18.4143Z" fill="black"/>
</g>
<defs>
<clipPath id="clip0_1_12869">
<rect width="36" height="36" fill="white"/>
</clipPath>
</defs>
</svg>
