<svg width="197" height="182" viewBox="0 0 197 182" fill="none" xmlns="http://www.w3.org/2000/svg">
<path d="M180.077 79.3432L179.968 32.5044L157.053 71.0958H148.917L126.11 33.5004V79.3432H109.188V1.27344H124.107L153.264 49.7928L181.971 1.27344H196.782L197 79.3432H180.077Z" fill="#194650"/>
<path fill-rule="evenodd" clip-rule="evenodd" d="M143.763 102.656H161.695H196.27V182.002H109.172V102.656H143.763ZM161.71 128.441H143.778V113.347H119.869V171.312H185.619V113.347H161.71V128.441Z" fill="#194650"/>
<path fill-rule="evenodd" clip-rule="evenodd" d="M36.1433 126.885H50.9702V113.347C50.9702 112.491 51.6688 111.791 52.5227 111.791H76.432C77.2859 111.791 77.9845 112.491 77.9845 113.347V171.312C77.9845 172.167 77.2859 172.868 76.432 172.868H10.6815C9.82763 172.868 9.12898 172.167 9.12898 171.312V113.347C9.12898 112.491 9.82763 111.791 10.6815 111.791H34.5908C35.4447 111.791 36.1433 112.491 36.1433 113.347V126.885ZM34.5908 104.212H1.56807V180.446H85.5454V104.212H52.5227H34.5908ZM52.5227 128.441H34.5908V113.347H10.6815V171.312H76.432V113.347H52.5227V128.441ZM0.0155229 102.656H34.5908H52.5227H87.098V182.002H0V102.656H0.0155229Z" fill="#194650"/>
<path fill-rule="evenodd" clip-rule="evenodd" d="M36.1433 24.2285H50.9702V10.6904C50.9702 9.83458 51.6688 9.13434 52.5227 9.13434H76.432C77.2859 9.13434 77.9845 9.83458 77.9845 10.6904V68.6553C77.9845 69.5112 77.2859 70.2114 76.432 70.2114H10.6815C9.82763 70.2114 9.12898 69.5112 9.12898 68.6553V10.6904C9.12898 9.83458 9.82763 9.13434 10.6815 9.13434H34.5908C35.4447 9.13434 36.1433 9.83458 36.1433 10.6904V24.2285ZM34.5908 1.5561H1.56807V77.7896H85.5454V1.5561H52.5227H34.5908ZM52.5227 25.7846H34.5908V10.6904H10.6815V68.6553H76.432V10.6904H52.5227V25.7846ZM0.0155229 0H34.5908H52.5227H87.098V79.3458H0V0H0.0155229Z" fill="#194650"/>
<path fill-rule="evenodd" clip-rule="evenodd" d="M52.5227 128.441H34.5908V113.347H10.6815V171.312H76.432V113.347H52.5227V128.441ZM0.0155229 102.656H34.5908H52.5227H87.098V182.002H0V102.656H0.0155229Z" fill="#194650"/>
<path fill-rule="evenodd" clip-rule="evenodd" d="M52.5227 25.7846H34.5908V10.6904H10.6815V68.6553H76.432V10.6904H52.5227V25.7846ZM0.0155229 0H34.5908H52.5227H87.098V79.3458H0V0H0.0155229Z" fill="#194650"/>
</svg>
